<?xml version="1.0" encoding="UTF-8" standalone="no"?>
<!DOCTYPE svg PUBLIC "-//W3C//DTD SVG 1.1//EN"
 "http://www.w3.org/Graphics/SVG/1.1/DTD/svg11.dtd">
<!-- Generated by graphviz version 2.40.1 (20161225.0304)
 -->
<!-- Title: %3 Pages: 1 -->
<svg width="176pt" height="252pt"
 viewBox="0.00 0.00 176.04 251.98" xmlns="http://www.w3.org/2000/svg" xmlns:xlink="http://www.w3.org/1999/xlink">
<g id="graph0" class="graph" transform="scale(1 1) rotate(0) translate(4 247.9844)">
<title>%3</title>
<polygon fill="#ffffff" stroke="transparent" points="-4,4 -4,-247.9844 172.0361,-247.9844 172.0361,4 -4,4"/>
<!-- 1 -->
<g id="node1" class="node">
<title>1</title>
<g id="a_node1"><a xlink:title="aoc&#45;2018&#45;09.py">
<polygon fill="#ff0000" stroke="#ff0000" points="134.634,-53.9941 33.4021,-53.9941 33.4021,-.002 134.634,-.002 134.634,-53.9941"/>
<text text-anchor="middle" x="84.0181" y="-41.9961" font-family="Arial" font-size="10.00" fill="#ffffff">aoc&#45;2018&#45;09:4:play</text>
<text text-anchor="middle" x="84.0181" y="-30.4971" font-family="Arial" font-size="10.00" fill="#ffffff">100.00%</text>
<text text-anchor="middle" x="84.0181" y="-18.998" font-family="Arial" font-size="10.00" fill="#ffffff">(99.92%)</text>
<text text-anchor="middle" x="84.0181" y="-7.499" font-family="Arial" font-size="10.00" fill="#ffffff">7×</text>
</a>
</g>
</g>
<!-- 2 -->
<g id="node2" class="node">
<title>2</title>
<g id="a_node2"><a xlink:title="~">
<polygon fill="#ff0000" stroke="#ff0000" points="168.0542,-243.9824 -.0181,-243.9824 -.0181,-189.9902 168.0542,-189.9902 168.0542,-243.9824"/>
<text text-anchor="middle" x="84.0181" y="-231.9844" font-family="Arial" font-size="10.00" fill="#ffffff">~:0:&lt;built&#45;in method builtins.exec&gt;</text>
<text text-anchor="middle" x="84.0181" y="-220.4854" font-family="Arial" font-size="10.00" fill="#ffffff">100.00%</text>
<text text-anchor="middle" x="84.0181" y="-208.9863" font-family="Arial" font-size="10.00" fill="#ffffff">(0.00%)</text>
<text text-anchor="middle" x="84.0181" y="-197.4873" font-family="Arial" font-size="10.00" fill="#ffffff">1×</text>
</a>
</g>
</g>
<!-- 9 -->
<g id="node3" class="node">
<title>9</title>
<g id="a_node3"><a xlink:title="aoc&#45;2018&#45;09.py">
<polygon fill="#ff0000" stroke="#ff0000" points="147.7664,-148.9883 20.2698,-148.9883 20.2698,-94.9961 147.7664,-94.9961 147.7664,-148.9883"/>
<text text-anchor="middle" x="84.0181" y="-136.9902" font-family="Arial" font-size="10.00" fill="#ffffff">aoc&#45;2018&#45;09:1:&lt;module&gt;</text>
<text text-anchor="middle" x="84.0181" y="-125.4912" font-family="Arial" font-size="10.00" fill="#ffffff">100.00%</text>
<text text-anchor="middle" x="84.0181" y="-113.9922" font-family="Arial" font-size="10.00" fill="#ffffff">(0.00%)</text>
<text text-anchor="middle" x="84.0181" y="-102.4932" font-family="Arial" font-size="10.00" fill="#ffffff">1×</text>
</a>
</g>
</g>
<!-- 2&#45;&gt;9 -->
<g id="edge1" class="edge">
<title>2&#45;&gt;9</title>
<path fill="none" stroke="#ff0000" stroke-width="4" d="M84.0181,-189.7648C84.0181,-180.3246 84.0181,-169.5688 84.0181,-159.4501"/>
<polygon fill="#ff0000" stroke="#ff0000" stroke-width="4" points="87.5182,-159.2176 84.0181,-149.2177 80.5182,-159.2177 87.5182,-159.2176"/>
<text text-anchor="middle" x="103.7568" y="-172.9883" font-family="Arial" font-size="10.00" fill="#ff0000">100.00%</text>
<text text-anchor="middle" x="103.7568" y="-161.4893" font-family="Arial" font-size="10.00" fill="#ff0000">1×</text>
</g>
<!-- 9&#45;&gt;1 -->
<g id="edge2" class="edge">
<title>9&#45;&gt;1</title>
<path fill="none" stroke="#ff0000" stroke-width="4" d="M84.0181,-94.7707C84.0181,-85.3304 84.0181,-74.5747 84.0181,-64.4559"/>
<polygon fill="#ff0000" stroke="#ff0000" stroke-width="4" points="87.5182,-64.2235 84.0181,-54.2235 80.5182,-64.2236 87.5182,-64.2235"/>
<text text-anchor="middle" x="103.7568" y="-77.9941" font-family="Arial" font-size="10.00" fill="#ff0000">100.00%</text>
<text text-anchor="middle" x="103.7568" y="-66.4951" font-family="Arial" font-size="10.00" fill="#ff0000">7×</text>
</g>
</g>
</svg>
